<?xml version="1.0" ?><!DOCTYPE svg  PUBLIC '-//W3C//DTD SVG 1.1//EN'  'http://www.w3.org/Graphics/SVG/1.1/DTD/svg11.dtd'><svg enable-background="new 0 0 48 48" height="48px" id="Layer_1" version="1.1" viewBox="0 0 48 48" width="48px" xml:space="preserve" xmlns="http://www.w3.org/2000/svg" xmlns:xlink="http://www.w3.org/1999/xlink"><g><path d="   M44.282,30.304c-0.284-1.268-1.41-2.042-2.53-1.722c-0.36,0.103-0.678,0.307-0.929,0.58c-0.5-0.543-1.227-0.79-1.949-0.587   c-0.434,0.123-0.802,0.394-1.073,0.755c-0.481-0.39-1.103-0.546-1.722-0.37c-0.237,0.066-0.454,0.18-0.646,0.323l-1.522-7.054   c-0.275-1.279-1.409-2.062-2.535-1.742c-1.117,0.317-1.801,1.617-1.525,2.896l2.241,10.39l-0.003,0.001l0.694,3.212l-4.921-2.348   c-1.022-0.486-2.3,0.114-2.733,1.3c-0.442,1.218,0.062,2.619,1.122,3.127c0,0,7.142,3.927,7.176,3.97   c0.545,0.682,1.376,3.316,1.376,3.316L47,42.882l-2.713-12.579L44.282,30.304z" fill="none" stroke="#000000" stroke-linecap="round" stroke-linejoin="round" stroke-miterlimit="10" stroke-width="2"/><polyline fill="none" points="   30.484,26.942 27.647,26.942 27.647,16.284 36.94,16.284 36.94,26.942 34.928,26.942  " stroke="#000000" stroke-linecap="round" stroke-linejoin="round" stroke-miterlimit="10" stroke-width="2"/><rect fill="none" height="10.658" stroke="#000000" stroke-linecap="round" stroke-linejoin="round" stroke-miterlimit="10" stroke-width="2" width="9.294" x="14.323" y="16.284"/><rect fill="none" height="10.658" stroke="#000000" stroke-linecap="round" stroke-linejoin="round" stroke-miterlimit="10" stroke-width="2" width="9.293" x="1" y="16.284"/><rect fill="none" height="10.66" stroke="#000000" stroke-linecap="round" stroke-linejoin="round" stroke-miterlimit="10" stroke-width="2" width="9.294" x="14.323" y="31.891"/><rect fill="none" height="10.66" stroke="#000000" stroke-linecap="round" stroke-linejoin="round" stroke-miterlimit="10" stroke-width="2" width="9.293" x="1" y="31.891"/><rect fill="none" height="10.661" stroke="#000000" stroke-linecap="round" stroke-linejoin="round" stroke-miterlimit="10" stroke-width="2" width="9.293" x="27.647" y="1"/><rect fill="none" height="10.661" stroke="#000000" stroke-linecap="round" stroke-linejoin="round" stroke-miterlimit="10" stroke-width="2" width="9.294" x="14.323" y="1"/><rect fill="none" height="10.661" stroke="#000000" stroke-linecap="round" stroke-linejoin="round" stroke-miterlimit="10" stroke-width="2" width="9.293" x="1" y="1"/><line fill="none" stroke="#000000" stroke-linecap="round" stroke-linejoin="round" stroke-miterlimit="10" stroke-width="2" x1="1" x2="31.14" y1="47" y2="47"/><line fill="none" stroke="#000000" stroke-linecap="round" stroke-linejoin="round" stroke-miterlimit="10" stroke-width="2" x1="41.489" x2="41.489" y1="1" y2="25.262"/></g></svg>